<?xml version="1.0" standalone="no"?>
<!DOCTYPE svg PUBLIC "-//W3C//DTD SVG 20010904//EN"
 "http://www.w3.org/TR/2001/REC-SVG-20010904/DTD/svg10.dtd">
<svg version="1.0" xmlns="http://www.w3.org/2000/svg"
 width="800.000000pt" height="800.000000pt" viewBox="0 0 800.000000 800.000000"
 preserveAspectRatio="xMidYMid meet">
<metadata>
Created by potrace 1.11, written by Peter Selinger 2001-2013
</metadata>
<g transform="translate(0.000000,800.000000) scale(0.100000,-0.100000)"
fill="#000000" stroke="none">
<path d="M3130 6878 c0 -15 11 -40 24 -55 l24 -28 202 0 c200 0 202 0 221 24
10 13 19 32 19 42 0 18 -1 18 -20 -1 -22 -22 -52 -24 -280 -20 -141 2 -152 4
-173 38 l-16 27 -1 -27z"/>
<path d="M3318 6493 c6 -2 18 -2 25 0 6 3 1 5 -13 5 -14 0 -19 -2 -12 -5z"/>
<path d="M3478 6483 c7 -3 16 -2 19 1 4 3 -2 6 -13 5 -11 0 -14 -3 -6 -6z"/>
<path d="M1571 6444 c0 -11 3 -14 6 -6 3 7 2 16 -1 19 -3 4 -6 -2 -5 -13z"/>
<path d="M2061 6420 c1 -8 1 -21 0 -28 -2 -22 -243 -262 -284 -284 -38 -19
-40 -19 -59 -1 -12 10 -36 50 -54 88 -38 81 -43 80 -13 -1 25 -67 82 -134 114
-134 32 0 86 43 199 157 128 130 143 157 111 199 -11 14 -15 15 -14 4z"/>
<path d="M4675 6397 c-5 -18 -3 -38 6 -55 19 -38 238 -256 276 -276 31 -15 33
-15 60 8 l28 24 -27 -5 c-24 -4 -38 5 -100 63 -132 127 -219 223 -230 254 -4
10 -8 6 -13 -13z"/>
<path d="M1601 6340 c0 -8 4 -22 9 -30 12 -18 12 -2 0 25 -6 13 -9 15 -9 5z"/>
<path d="M4260 6216 c0 -3 9 -10 20 -16 11 -6 20 -8 20 -6 0 3 -9 10 -20 16
-11 6 -20 8 -20 6z"/>
<path d="M4390 6114 c195 -178 316 -319 413 -484 79 -133 83 -137 33 -35 -91
185 -271 401 -447 534 l-84 63 85 -78z"/>
<path d="M2180 6052 c-36 -31 -78 -73 -95 -92 -16 -19 14 5 68 54 86 79 104
97 95 96 -2 -1 -32 -26 -68 -58z"/>
<path d="M4880 5495 c0 -5 5 -17 10 -25 5 -8 10 -10 10 -5 0 6 -5 17 -10 25
-5 8 -10 11 -10 5z"/>
<path d="M4645 5040 c-118 -18 -267 -74 -393 -147 -78 -46 -125 -81 -237 -179
-117 -102 -148 -118 -230 -117 -56 0 -92 9 -185 43 -345 128 -425 147 -570
136 -221 -16 -375 -112 -514 -319 -64 -95 -109 -137 -146 -137 -13 0 -80 19
-149 41 -165 54 -237 55 -382 5 -81 -29 -99 -32 -99 -19 0 9 6 13 15 9 18 -7
15 28 -4 47 -11 10 -12 8 -6 -10 4 -14 2 -23 -4 -23 -12 0 -51 72 -51 95 0 8
-4 15 -10 15 -5 0 -10 19 -10 43 0 29 -3 38 -9 28 -16 -26 -26 75 -26 272 0
116 -3 175 -8 155 -4 -18 -9 -109 -9 -203 -1 -174 10 -271 51 -430 l18 -70
-42 -50 c-22 -27 -67 -86 -98 -130 -31 -44 -67 -92 -79 -107 -33 -39 -105 -67
-216 -85 -321 -51 -523 -201 -608 -453 -25 -74 -25 -232 0 -315 26 -88 81
-180 146 -244 99 -97 271 -181 406 -196 96 -11 117 -21 159 -78 114 -153 186
-212 319 -262 140 -53 185 -59 421 -60 l220 0 45 -28 c25 -15 74 -52 110 -82
68 -58 158 -109 250 -144 196 -75 387 -84 665 -31 284 54 336 49 530 -57 145
-78 296 -130 500 -170 125 -24 424 -24 550 1 177 34 351 96 450 159 28 17 87
59 132 93 127 97 136 100 288 94 253 -9 366 -5 425 14 181 61 231 124 250 311
15 145 18 153 52 171 16 9 40 13 53 10 50 -13 251 -7 310 9 302 79 505 335
505 635 0 344 -271 620 -670 681 -41 6 -84 16 -95 21 -11 5 -65 56 -120 113
-118 121 -193 172 -309 210 -90 29 -134 30 -348 9 -81 -8 -145 11 -196 60 -35
32 -123 157 -121 172 0 5 53 35 118 68 65 32 128 67 142 78 13 11 -1 6 -32
-11 -177 -97 -259 -130 -259 -102 0 3 -20 37 -45 74 l-44 68 -3 142 c-3 140
-3 142 -21 116 -12 -18 -20 -55 -24 -113 l-6 -85 -59 54 c-64 59 -174 128
-253 158 -27 10 -55 23 -62 29 -26 22 -274 34 -378 18z m249 -37 c31 -17 1
-26 -103 -29 -115 -3 -247 -35 -376 -91 -147 -63 -219 -108 -375 -233 -132
-106 -163 -124 -224 -125 -50 0 -116 20 -116 35 0 4 35 9 79 12 95 5 111 15
274 150 64 54 136 110 160 125 117 74 283 141 407 164 60 11 250 5 274 -8z
m-1723 -257 c79 -14 177 -51 166 -63 -4 -3 -38 0 -76 7 -92 17 -275 8 -357
-18 -150 -47 -249 -124 -354 -273 -118 -165 -142 -174 -318 -112 -97 34 -117
38 -212 38 -101 0 -108 -2 -182 -37 -95 -45 -168 -115 -266 -255 -72 -101
-113 -143 -162 -161 -14 -5 -70 -17 -125 -26 -122 -21 -274 -71 -352 -117 -32
-19 -88 -64 -125 -102 -76 -75 -89 -69 -29 14 37 52 97 103 171 146 54 32 208
81 290 93 89 13 164 34 199 56 39 25 95 89 157 182 98 146 184 215 309 248 83
23 135 17 267 -27 210 -71 252 -58 375 121 40 58 94 124 120 148 82 73 202
126 323 142 82 11 98 11 181 -4z m2943 -454 c7 -12 -226 -36 -255 -26 -20 7
-12 10 46 20 84 14 202 17 209 6z m1096 -648 c37 -19 72 -55 108 -112 101
-156 108 -359 20 -537 -61 -122 -138 -199 -264 -263 -115 -58 -186 -69 -391
-63 -80 3 -97 0 -127 -18 -42 -26 -53 -55 -66 -181 -5 -52 -14 -110 -19 -129
-22 -75 -93 -133 -202 -169 -43 -13 -80 -16 -184 -13 -316 10 -355 8 -420 -22
-33 -15 -93 -54 -135 -86 -132 -101 -227 -148 -390 -195 -157 -45 -262 -59
-403 -51 -130 7 -252 32 -249 50 1 6 29 11 62 13 34 2 58 7 55 12 -3 5 15 15
40 21 25 6 45 15 45 19 0 4 28 15 63 24 34 9 76 22 92 28 17 6 80 27 140 48
111 37 305 127 305 140 0 4 18 15 40 25 22 10 40 25 40 33 0 9 3 12 7 9 3 -4
16 2 27 12 12 11 25 21 31 23 5 2 8 11 7 20 -2 12 2 15 18 11 22 -6 28 11 8
21 -7 4 5 4 27 1 22 -2 36 -1 30 3 -15 11 -17 32 -2 26 7 -2 21 4 32 15 12 14
25 19 41 15 37 -9 77 4 70 23 -6 16 5 15 46 -2 11 -4 18 0 23 15 4 13 13 19
23 16 57 -16 80 -16 95 -2 9 9 21 16 27 16 7 0 10 8 7 20 -4 15 0 20 14 20 12
0 19 7 19 19 0 11 5 23 12 27 7 4 8 3 4 -4 -15 -24 11 -11 37 19 30 34 39 71
12 49 -9 -7 -18 -10 -21 -7 -3 3 4 10 15 17 12 6 21 17 21 24 0 19 28 40 54
41 17 0 22 7 24 35 2 19 8 40 13 45 7 7 8 3 3 -10 -5 -13 5 -7 29 17 20 21 37
41 37 45 0 4 11 21 25 37 14 16 25 33 25 38 0 4 7 8 15 8 9 0 15 9 15 24 0 16
13 35 40 56 22 17 40 40 40 51 0 12 7 19 19 19 10 0 22 7 25 16 6 15 4 15 -10
3 -16 -13 -16 -12 -5 9 7 13 24 28 39 35 33 15 115 94 118 115 4 22 64 73 77
66 7 -4 9 -4 5 1 -13 14 13 46 50 62 22 9 31 17 24 22 -8 5 0 18 23 41 20 19
35 28 35 20 0 -7 25 12 55 43 38 40 62 57 80 57 23 0 25 4 25 40 0 33 3 40 20
40 10 0 23 6 27 13 18 30 58 44 126 42 37 0 67 3 67 8 0 11 56 -1 90 -19z
m-3640 -1548 c-27 -27 -325 -75 -344 -56 -6 6 -4 11 5 15 35 13 258 53 304 54
43 1 47 -1 35 -13z"/>
<path d="M1300 4991 c15 -30 9 -416 -8 -433 -7 -7 -32 -12 -55 -12 l-42 1 40
-12 c51 -15 92 -2 108 34 6 15 11 99 11 206 1 157 -1 184 -17 208 -21 32 -54
39 -37 8z"/>
<path d="M800 4762 c0 -18 347 -212 380 -212 6 0 -36 24 -92 53 -145 76 -218
117 -255 145 -18 13 -33 20 -33 14z"/>
<path d="M5870 4720 c-8 -5 -10 -10 -5 -10 6 0 17 5 25 10 8 5 11 10 5 10 -5
0 -17 -5 -25 -10z"/>
<path d="M1651 4644 c0 -11 3 -14 6 -6 3 7 2 16 -1 19 -3 4 -6 -2 -5 -13z"/>
<path d="M5848 1850 c-32 -25 -128 -151 -160 -210 -51 -95 -63 -140 -63 -240
0 -83 3 -101 25 -140 14 -24 40 -54 57 -66 100 -67 254 -15 299 103 24 63 14
215 -25 365 -52 203 -74 235 -133 188z m26 -120 c-16 -14 -44 -46 -63 -70 -63
-82 -66 -77 -8 8 47 70 91 116 96 101 2 -7 -9 -24 -25 -39z m60 -23 c26 -64
57 -221 58 -292 0 -120 -36 -174 -120 -183 -60 -5 -89 9 -108 53 -28 67 -8
235 37 316 7 13 14 26 14 29 1 12 66 99 77 103 24 10 28 7 42 -26z"/>
<path d="M3120 1778 c-111 -110 -170 -225 -171 -333 -1 -71 20 -128 52 -145
105 -56 221 -9 254 104 19 64 19 142 -1 264 -21 133 -33 172 -55 172 -9 0 -45
-28 -79 -62z m17 -63 c-27 -25 -51 -45 -55 -45 -3 0 14 20 38 45 24 25 49 45
55 45 5 0 -12 -20 -38 -45z m78 -87 c27 -154 16 -245 -36 -282 -25 -17 -59
-22 -59 -7 0 5 9 11 19 14 27 7 58 60 65 112 6 37 -4 159 -20 250 -4 25 -3 27
6 13 6 -10 17 -55 25 -100z"/>
<path d="M4608 1581 c-120 -122 -188 -256 -188 -366 0 -128 59 -195 170 -195
70 0 128 35 160 95 22 45 25 61 25 165 0 113 -12 199 -42 313 -21 78 -39 76
-125 -12z m82 -27 c0 -7 -121 -124 -128 -124 -6 0 19 30 77 93 32 34 51 46 51
31z m24 -41 c14 -45 36 -201 36 -252 0 -116 -42 -181 -115 -181 -58 0 -65 13
-14 25 35 9 46 18 63 50 18 35 21 57 21 180 -1 77 -4 152 -8 168 -8 29 8 39
17 10z"/>
<path d="M2294 1498 c-182 -158 -297 -347 -310 -511 -11 -129 38 -220 133
-246 126 -35 243 22 302 148 37 79 41 245 12 433 -36 234 -50 252 -137 176z
m10 -101 c-11 -6 -43 -33 -71 -60 -29 -28 -53 -45 -53 -40 0 5 30 39 67 74 44
43 68 59 71 50 3 -8 -4 -18 -14 -24z m60 -155 c23 -151 19 -300 -8 -356 -20
-40 -67 -76 -100 -76 -14 0 -9 9 22 39 54 52 72 115 72 240 -1 87 -11 196 -25
276 -5 27 -4 28 8 13 8 -10 22 -71 31 -136z"/>
<path d="M3783 1322 c-112 -89 -223 -237 -269 -359 -35 -91 -43 -211 -20 -281
58 -175 317 -176 406 -2 47 92 51 278 11 511 -32 185 -44 197 -128 131z m26
-111 c-13 -9 -53 -43 -88 -76 -40 -37 -57 -48 -44 -30 37 54 146 151 151 135
3 -7 -6 -21 -19 -29z m62 -132 c26 -151 23 -316 -7 -374 -24 -47 -88 -85 -130
-77 l-27 5 39 20 c44 22 57 36 82 87 14 29 17 64 16 200 0 91 -3 190 -8 220
-5 41 -4 52 4 44 7 -7 21 -63 31 -125z"/>
<path d="M5190 1154 c-206 -176 -318 -395 -290 -568 25 -152 123 -221 271
-191 72 14 122 53 156 123 23 47 27 71 31 166 5 123 -25 365 -56 459 -23 69
-42 71 -112 11z m49 -111 c-13 -9 -57 -50 -98 -92 -40 -42 -68 -65 -61 -51 22
41 172 187 177 172 3 -8 -5 -21 -18 -29z m50 -40 c22 -88 35 -195 35 -298 1
-96 -2 -116 -23 -159 -14 -27 -38 -57 -55 -67 -33 -20 -99 -25 -139 -10 -32
12 -67 88 -67 145 0 84 90 306 133 324 4 2 5 8 1 13 -3 5 0 9 5 9 6 0 10 4 9
9 -2 5 0 10 4 11 4 0 21 14 39 31 17 16 35 29 40 29 4 0 13 -17 18 -37z"/>
</g>
</svg>
